<?xml version="1.0" standalone="no"?>
<!DOCTYPE svg PUBLIC "-//W3C//DTD SVG 20010904//EN" "http://www.w3.org/TR/2001/REC-SVG-20010904/DTD/svg10.dtd">
<svg version="1.0" xmlns="http://www.w3.org/2000/svg"
    width="1536.000000pt" height="1024.000000pt" viewBox="0 0 1536.000000 1024.000000"
    preserveAspectRatio="xMidYMid meet">

    <g transform="translate(0.000000,1024.000000) scale(0.100000,-0.100000)"
        fill="#F00813" stroke="none">
        <path
            d="M4460 7986 c-169 -36 -307 -111 -425 -230 -96 -96 -155 -183 -195
-287 -28 -74 -56 -184 -62 -244 -3 -29 -5 -30 -88 -47 -110 -23 -187 -50 -280
-100 -269 -146 -470 -424 -525 -724 -22 -123 -21 -120 -65 -133 -179 -53 -373
-230 -462 -418 -77 -164 -81 -193 -86 -598 -2 -228 0 -395 8 -455 22 -193 100
-352 239 -491 92 -92 179 -150 276 -185 56 -20 60 -24 68 -60 48 -221 125
-369 271 -522 144 -151 352 -265 551 -302 80 -15 95 -24 95 -53 0 -85 86 -291
165 -395 85 -113 241 -227 370 -272 135 -47 333 -64 457 -39 313 63 537 260
639 564 l24 70 3 2097 c2 2063 2 2099 -18 2190 -24 113 -97 266 -169 355 -96
117 -270 230 -416 269 -82 22 -292 27 -375 10z m212 -636 c44 -13 93 -66 107
-117 15 -52 15 -4023 1 -4075 -19 -68 -114 -126 -187 -115 -48 8 -99 45 -120
87 -17 33 -18 152 -21 2056 l-2 2020 27 54 c22 42 38 60 72 77 49 26 69 28
123 13z m-882 -2175 c0 -1085 -3 -1365 -12 -1365 -60 1 -179 102 -222 189 -57
111 -56 90 -56 1176 0 1073 0 1067 51 1167 32 62 117 148 174 174 28 13 53 24
58 24 4 0 7 -614 7 -1365z m-880 -25 c0 -252 -4 -430 -9 -430 -20 0 -60 63
-71 112 -8 35 -10 153 -8 353 l3 300 28 48 c56 95 57 91 57 -383z" />
        <path
            d="M10591 7990 c-309 -65 -552 -296 -634 -602 l-22 -83 0 -2110 0 -2110
23 -79 c13 -44 44 -120 69 -170 38 -73 65 -109 138 -182 76 -76 105 -97 185
-137 154 -75 227 -92 410 -92 176 0 253 17 383 81 224 110 403 346 449 589 15
77 8 72 143 105 102 24 242 87 336 151 77 51 195 163 255 241 84 109 168 298
188 429 6 33 10 36 65 53 119 36 266 142 350 253 66 86 125 206 153 308 22 77
23 96 23 505 0 487 -1 494 -84 665 -97 198 -262 349 -453 414 l-52 18 -21 104
c-35 170 -72 263 -159 399 -134 208 -383 380 -623 433 l-102 22 -6 45 c-32
233 -142 436 -315 577 -74 60 -217 134 -305 158 -71 19 -328 29 -394 15z m244
-649 c50 -23 70 -45 90 -100 13 -38 15 -277 15 -2055 0 -1940 -1 -2013 -19
-2046 -63 -118 -216 -131 -297 -24 l-29 37 -3 2020 c-1 1452 1 2031 9 2060 19
69 92 124 169 126 14 0 43 -8 65 -18z m845 -829 c89 -42 173 -171 190 -294 5
-35 10 -504 10 -1043 0 -1065 0 -1052 -56 -1171 -42 -90 -160 -194 -219 -194
-13 0 -15 143 -15 1366 l0 1366 28 -7 c15 -3 43 -14 62 -23z m847 -974 l28
-42 0 -347 0 -347 -30 -43 c-16 -23 -36 -44 -42 -47 -10 -3 -13 88 -13 432 0
480 0 481 57 394z" />
        <path
            d="M5881 6904 c-124 -33 -227 -121 -284 -241 -30 -63 -32 -76 -32 -173
0 -98 2 -110 34 -177 37 -80 117 -165 186 -201 109 -55 -2 -52 1904 -52 1456
0 1765 3 1807 14 262 69 392 354 275 599 -35 73 -122 161 -193 195 -112 55
-19 52 -1903 51 -1488 0 -1748 -2 -1794 -15z" />
        <path
            d="M5885 5686 c-264 -66 -400 -351 -281 -591 39 -79 116 -159 187 -196
101 -51 21 -49 1904 -49 1161 0 1765 4 1795 11 70 16 141 56 198 112 247 240
118 654 -222 716 -91 17 -3514 14 -3581 -3z" />
        <path
            d="M5926 4499 c-65 -10 -152 -46 -204 -86 -55 -41 -117 -135 -142 -212
-73 -229 73 -481 310 -535 61 -14 264 -16 1807 -16 1900 0 1794 -3 1905 57 63
35 143 120 173 185 124 272 -49 577 -343 608 -103 11 -3431 10 -3506 -1z" />
    </g>
</svg>